<mxfile host="app.diagrams.net" modified="2023-10-03T19:07:58.218Z" agent="Mozilla/5.0 (Macintosh; Intel Mac OS X 10_15_7) AppleWebKit/537.36 (KHTML, like Gecko) Chrome/117.0.0.0 Safari/537.36" etag="8JdX3-x74J6A_a6DurWR" version="21.5.0" type="github">
  <diagram name="Page-1" id="2YBvvXClWsGukQMizWep">
    <mxGraphModel dx="2044" dy="694" grid="1" gridSize="10" guides="1" tooltips="1" connect="1" arrows="1" fold="1" page="1" pageScale="1" pageWidth="850" pageHeight="1100" math="0" shadow="0">
      <root>
        <mxCell id="0" />
        <mxCell id="1" parent="0" />
        <mxCell id="TsQ1GhdptqdJ7PX9sAlC-1" value="Banco Postgres" style="shape=cylinder3;whiteSpace=wrap;html=1;boundedLbl=1;backgroundOutline=1;size=15;" parent="1" vertex="1">
          <mxGeometry x="130" y="160" width="60" height="80" as="geometry" />
        </mxCell>
        <mxCell id="TsQ1GhdptqdJ7PX9sAlC-11" style="edgeStyle=orthogonalEdgeStyle;rounded=0;orthogonalLoop=1;jettySize=auto;html=1;entryX=0;entryY=0;entryDx=110;entryDy=10;entryPerimeter=0;" parent="1" source="TsQ1GhdptqdJ7PX9sAlC-2" target="TsQ1GhdptqdJ7PX9sAlC-3" edge="1">
          <mxGeometry relative="1" as="geometry" />
        </mxCell>
        <mxCell id="TsQ1GhdptqdJ7PX9sAlC-2" value="API - ChatGpt" style="shape=cube;whiteSpace=wrap;html=1;boundedLbl=1;backgroundOutline=1;darkOpacity=0.05;darkOpacity2=0.1;" parent="1" vertex="1">
          <mxGeometry x="370" y="160" width="120" height="80" as="geometry" />
        </mxCell>
        <mxCell id="TsQ1GhdptqdJ7PX9sAlC-7" style="edgeStyle=orthogonalEdgeStyle;rounded=0;orthogonalLoop=1;jettySize=auto;html=1;" parent="1" source="TsQ1GhdptqdJ7PX9sAlC-3" target="TsQ1GhdptqdJ7PX9sAlC-1" edge="1">
          <mxGeometry relative="1" as="geometry" />
        </mxCell>
        <mxCell id="TsQ1GhdptqdJ7PX9sAlC-8" style="edgeStyle=orthogonalEdgeStyle;rounded=0;orthogonalLoop=1;jettySize=auto;html=1;exitX=0;exitY=0;exitDx=110;exitDy=10;exitPerimeter=0;entryX=0;entryY=0;entryDx=70;entryDy=80;entryPerimeter=0;" parent="1" source="TsQ1GhdptqdJ7PX9sAlC-3" target="TsQ1GhdptqdJ7PX9sAlC-2" edge="1">
          <mxGeometry relative="1" as="geometry" />
        </mxCell>
        <mxCell id="TsQ1GhdptqdJ7PX9sAlC-10" style="edgeStyle=orthogonalEdgeStyle;rounded=0;orthogonalLoop=1;jettySize=auto;html=1;exitX=0.833;exitY=1;exitDx=0;exitDy=0;exitPerimeter=0;entryX=0.005;entryY=0.428;entryDx=0;entryDy=0;entryPerimeter=0;" parent="1" source="TsQ1GhdptqdJ7PX9sAlC-3" target="TsQ1GhdptqdJ7PX9sAlC-5" edge="1">
          <mxGeometry relative="1" as="geometry" />
        </mxCell>
        <mxCell id="TsQ1GhdptqdJ7PX9sAlC-20" style="edgeStyle=orthogonalEdgeStyle;rounded=0;orthogonalLoop=1;jettySize=auto;html=1;entryX=0;entryY=0;entryDx=70;entryDy=80;entryPerimeter=0;" parent="1" source="TsQ1GhdptqdJ7PX9sAlC-3" target="TsQ1GhdptqdJ7PX9sAlC-19" edge="1">
          <mxGeometry relative="1" as="geometry" />
        </mxCell>
        <mxCell id="TsQ1GhdptqdJ7PX9sAlC-22" style="edgeStyle=orthogonalEdgeStyle;rounded=0;orthogonalLoop=1;jettySize=auto;html=1;entryX=0;entryY=0;entryDx=70;entryDy=80;entryPerimeter=0;" parent="1" source="TsQ1GhdptqdJ7PX9sAlC-3" target="TsQ1GhdptqdJ7PX9sAlC-21" edge="1">
          <mxGeometry relative="1" as="geometry">
            <Array as="points">
              <mxPoint x="740" y="460" />
            </Array>
          </mxGeometry>
        </mxCell>
        <mxCell id="TsQ1GhdptqdJ7PX9sAlC-3" value="API - A45" style="shape=cube;whiteSpace=wrap;html=1;boundedLbl=1;backgroundOutline=1;darkOpacity=0.05;darkOpacity2=0.1;" parent="1" vertex="1">
          <mxGeometry x="100" y="410" width="120" height="80" as="geometry" />
        </mxCell>
        <mxCell id="TsQ1GhdptqdJ7PX9sAlC-6" style="edgeStyle=orthogonalEdgeStyle;rounded=0;orthogonalLoop=1;jettySize=auto;html=1;entryX=0.688;entryY=1.004;entryDx=0;entryDy=0;entryPerimeter=0;" parent="1" source="TsQ1GhdptqdJ7PX9sAlC-5" target="TsQ1GhdptqdJ7PX9sAlC-3" edge="1">
          <mxGeometry relative="1" as="geometry" />
        </mxCell>
        <mxCell id="TsQ1GhdptqdJ7PX9sAlC-5" value="Front com dashboard e campos para filtrar quais as características dos leads e a opção para exportar." style="whiteSpace=wrap;html=1;aspect=fixed;" parent="1" vertex="1">
          <mxGeometry x="300" y="510" width="170" height="170" as="geometry" />
        </mxCell>
        <mxCell id="TsQ1GhdptqdJ7PX9sAlC-15" style="edgeStyle=orthogonalEdgeStyle;rounded=0;orthogonalLoop=1;jettySize=auto;html=1;exitX=0.5;exitY=1;exitDx=0;exitDy=0;entryX=0.358;entryY=-0.003;entryDx=0;entryDy=0;entryPerimeter=0;" parent="1" source="TsQ1GhdptqdJ7PX9sAlC-12" target="TsQ1GhdptqdJ7PX9sAlC-14" edge="1">
          <mxGeometry relative="1" as="geometry" />
        </mxCell>
        <mxCell id="TsQ1GhdptqdJ7PX9sAlC-18" style="edgeStyle=orthogonalEdgeStyle;rounded=0;orthogonalLoop=1;jettySize=auto;html=1;entryX=0.145;entryY=1;entryDx=0;entryDy=-4.35;entryPerimeter=0;" parent="1" source="TsQ1GhdptqdJ7PX9sAlC-12" target="TsQ1GhdptqdJ7PX9sAlC-1" edge="1">
          <mxGeometry relative="1" as="geometry" />
        </mxCell>
        <mxCell id="TsQ1GhdptqdJ7PX9sAlC-12" value="Web Crawler" style="rounded=0;whiteSpace=wrap;html=1;" parent="1" vertex="1">
          <mxGeometry x="-10" y="280" width="120" height="60" as="geometry" />
        </mxCell>
        <mxCell id="TsQ1GhdptqdJ7PX9sAlC-17" style="edgeStyle=orthogonalEdgeStyle;rounded=0;orthogonalLoop=1;jettySize=auto;html=1;entryX=0.708;entryY=1;entryDx=0;entryDy=0;entryPerimeter=0;" parent="1" source="TsQ1GhdptqdJ7PX9sAlC-14" target="TsQ1GhdptqdJ7PX9sAlC-12" edge="1">
          <mxGeometry relative="1" as="geometry" />
        </mxCell>
        <mxCell id="TsQ1GhdptqdJ7PX9sAlC-14" value="Front com opções para configurar o crawler para onde e o que ele buscar de informações para popular o banco" style="whiteSpace=wrap;html=1;aspect=fixed;" parent="1" vertex="1">
          <mxGeometry x="-10" y="510" width="170" height="170" as="geometry" />
        </mxCell>
        <mxCell id="TsQ1GhdptqdJ7PX9sAlC-23" style="edgeStyle=orthogonalEdgeStyle;rounded=0;orthogonalLoop=1;jettySize=auto;html=1;entryX=1.007;entryY=0.369;entryDx=0;entryDy=0;entryPerimeter=0;exitX=0;exitY=0;exitDx=10;exitDy=70;exitPerimeter=0;" parent="1" source="TsQ1GhdptqdJ7PX9sAlC-19" target="TsQ1GhdptqdJ7PX9sAlC-3" edge="1">
          <mxGeometry relative="1" as="geometry">
            <Array as="points">
              <mxPoint x="520" y="230" />
              <mxPoint x="520" y="440" />
            </Array>
          </mxGeometry>
        </mxCell>
        <mxCell id="TsQ1GhdptqdJ7PX9sAlC-19" value="API - CNPJ.ws" style="shape=cube;whiteSpace=wrap;html=1;boundedLbl=1;backgroundOutline=1;darkOpacity=0.05;darkOpacity2=0.1;" parent="1" vertex="1">
          <mxGeometry x="520" y="160" width="120" height="80" as="geometry" />
        </mxCell>
        <mxCell id="TsQ1GhdptqdJ7PX9sAlC-24" style="edgeStyle=orthogonalEdgeStyle;rounded=0;orthogonalLoop=1;jettySize=auto;html=1;entryX=1.007;entryY=0.838;entryDx=0;entryDy=0;entryPerimeter=0;" parent="1" source="TsQ1GhdptqdJ7PX9sAlC-21" target="TsQ1GhdptqdJ7PX9sAlC-3" edge="1">
          <mxGeometry relative="1" as="geometry">
            <Array as="points">
              <mxPoint x="770" y="477" />
            </Array>
          </mxGeometry>
        </mxCell>
        <mxCell id="TsQ1GhdptqdJ7PX9sAlC-21" value="Outras APIs" style="shape=cube;whiteSpace=wrap;html=1;boundedLbl=1;backgroundOutline=1;darkOpacity=0.05;darkOpacity2=0.1;" parent="1" vertex="1">
          <mxGeometry x="670" y="160" width="120" height="80" as="geometry" />
        </mxCell>
      </root>
    </mxGraphModel>
  </diagram>
</mxfile>
